# Blender v2.76 (sub 0) OBJ File: 'cubemapped.blend'
# www.blender.org
mtllib test.mtl
o Cube
v 1.000000 -1.000000 -1.000000
v 1.000000 -1.000000 1.000000
v -1.000000 -1.000000 1.000000
v -1.000000 -1.000000 -1.000000
v 1.000000 1.000000 -0.999999
v 0.999999 1.000000 1.000001
v -1.000000 1.000000 1.000000
v -1.000000 1.000000 -1.000000
vt 0.500000 0.333984
vt 0.250000 0.333984
vt 0.250000 -0.000000
vt 0.500000 0.000000
vt 0.500000 0.666992
vt 0.500000 1.000000
vt 0.250000 1.000000
vt 0.250000 0.666992
vt 0.750000 0.334372
vt 0.750000 0.666403
vt 0.500000 0.666016
vt 1.000000 0.333984
vt 1.000000 0.666016
vt -0.000000 0.333984
vt 0.250000 0.666016
vt 0.000000 0.666016
vn 0.000000 1.000000 0.000000
vn 0.000000 -1.000000 0.000000
vn -1.000000 -0.000000 -0.000000
vn 0.000000 0.000000 -1.000000
vn 1.000000 0.000000 0.000000
vn -0.000000 -0.000000 1.000000
usemtl Material
s off
f 1/1/1 4/2/1 3/3/1 2/4/1
f 5/5/2 6/6/2 7/7/2 8/8/2
f 1/1/3 2/9/3 6/10/3 5/11/3
f 2/9/4 3/12/4 7/13/4 6/10/4
f 3/14/5 4/2/5 8/15/5 7/16/5
f 5/5/6 8/8/6 4/2/6 1/1/6
